<svg width="1200" height="1500" viewBox="0 0 1200 1500" fill="none" xmlns="http://www.w3.org/2000/svg">
  <defs>
    <linearGradient id="bg" x1="180" y1="120" x2="1010" y2="1370" gradientUnits="userSpaceOnUse">
      <stop stop-color="#18204A"/>
      <stop offset="0.48" stop-color="#0C112D"/>
      <stop offset="1" stop-color="#050816"/>
    </linearGradient>
    <linearGradient id="goldLine" x1="168" y1="168" x2="1032" y2="1332" gradientUnits="userSpaceOnUse">
      <stop stop-color="#F3DE92"/>
      <stop offset="0.4" stop-color="#C9A84C"/>
      <stop offset="1" stop-color="#8B6D24"/>
    </linearGradient>
    <radialGradient id="glow" cx="0" cy="0" r="1" gradientUnits="userSpaceOnUse" gradientTransform="translate(600 520) rotate(90) scale(620 620)">
      <stop stop-color="#E8C96A" stop-opacity="0.22"/>
      <stop offset="1" stop-color="#E8C96A" stop-opacity="0"/>
    </radialGradient>
  </defs>

  <rect width="1200" height="1500" rx="44" fill="url(#bg)"/>
  <rect x="48" y="48" width="1104" height="1404" rx="28" stroke="url(#goldLine)" stroke-width="2"/>
  <rect x="88" y="88" width="1024" height="1324" rx="18" stroke="rgba(255,255,255,0.18)" stroke-opacity="0.18"/>
  <circle cx="600" cy="520" r="520" fill="url(#glow)"/>

  <path d="M216 228H984" stroke="#C9A84C" stroke-opacity="0.45"/>
  <path d="M216 1268H984" stroke="#C9A84C" stroke-opacity="0.45"/>

  <text x="600" y="196" text-anchor="middle" fill="#C9A84C" font-family="'JetBrains Mono', monospace" font-size="28" letter-spacing="8">KRERSN STUDIO</text>
  <text x="600" y="280" text-anchor="middle" fill="#ECEAD8" font-family="Georgia, serif" font-size="150" font-style="italic">&#89;an&#305;k</text>
  <text x="600" y="352" text-anchor="middle" fill="#C9A84C" font-family="'JetBrains Mono', monospace" font-size="28" letter-spacing="10">OFFLINE CARD GAME</text>

  <g opacity="0.9">
    <circle cx="600" cy="760" r="250" stroke="#C9A84C" stroke-width="2" stroke-opacity="0.5"/>
    <circle cx="600" cy="760" r="196" stroke="#C9A84C" stroke-width="1.5" stroke-opacity="0.32"/>
    <circle cx="600" cy="760" r="138" stroke="#C9A84C" stroke-width="1" stroke-opacity="0.22"/>
  </g>

  <g fill="#E8C96A">
    <path d="M522 706C522 651 566 610 600 562C634 610 678 651 678 706C678 753 642 788 600 788C558 788 522 753 522 706Z"/>
    <path d="M600 784L640 856H560L600 784Z"/>
    <path d="M460 780C460 724 505 683 540 634C574 683 618 724 618 780C618 826 582 862 540 862C496 862 460 826 460 780Z" opacity="0.34"/>
    <path d="M660 780C660 724 705 683 740 634C774 683 818 724 818 780C818 826 782 862 740 862C696 862 660 826 660 780Z" opacity="0.34"/>
  </g>

  <text x="600" y="1010" text-anchor="middle" fill="#ECEAD8" font-family="Georgia, serif" font-size="54">Yan&#305;k and Yunan variants</text>
  <text x="600" y="1068" text-anchor="middle" fill="#8E91A8" font-family="Georgia, serif" font-size="34">Single-player, offline, rule-faithful mobile play</text>

  <text x="600" y="1192" text-anchor="middle" fill="#C9A84C" font-family="'JetBrains Mono', monospace" font-size="26" letter-spacing="8">ANDROID &#8226; OFFLINE &#8226; 18+</text>

  <text x="174" y="1360" fill="#8E91A8" font-family="'JetBrains Mono', monospace" font-size="22" letter-spacing="5">VOL. I</text>
  <text x="1016" y="1360" text-anchor="end" fill="#8E91A8" font-family="'JetBrains Mono', monospace" font-size="22" letter-spacing="5">MMXXVI</text>
</svg>
